<mxfile host="Electron" modified="2024-07-09T17:20:34.310Z" agent="Mozilla/5.0 (X11; Linux x86_64) AppleWebKit/537.36 (KHTML, like Gecko) draw.io/24.6.4 Chrome/124.0.6367.243 Electron/30.1.1 Safari/537.36" etag="VY361QCIDWNXdbaKkATz" version="24.6.4" type="device">
  <diagram name="PÃ¡gina-1" id="1oK6IXpEQPkTwQP_Tywj">
    <mxGraphModel dx="2261" dy="832" grid="1" gridSize="10" guides="1" tooltips="1" connect="1" arrows="1" fold="1" page="1" pageScale="1" pageWidth="827" pageHeight="1169" math="0" shadow="0">
      <root>
        <mxCell id="0" />
        <mxCell id="1" parent="0" />
        <mxCell id="MQBegtAZe7lp4aGN-AtD-7" value="datalake" style="swimlane;startSize=20;horizontal=1;childLayout=treeLayout;horizontalTree=0;sortEdges=1;resizable=0;containerType=tree;fontSize=12;" parent="1" vertex="1">
          <mxGeometry x="290" width="1335" height="460" as="geometry" />
        </mxCell>
        <mxCell id="MQBegtAZe7lp4aGN-AtD-8" value="bronze" style="whiteSpace=wrap;html=1;" parent="MQBegtAZe7lp4aGN-AtD-7" vertex="1">
          <mxGeometry x="617.5928" y="40" width="100" height="40" as="geometry" />
        </mxCell>
        <mxCell id="MQBegtAZe7lp4aGN-AtD-9" value="assunto_cities_skylines" style="whiteSpace=wrap;html=1;" parent="MQBegtAZe7lp4aGN-AtD-7" vertex="1">
          <mxGeometry x="588.0878" y="130" width="159.01" height="40" as="geometry" />
        </mxCell>
        <mxCell id="MQBegtAZe7lp4aGN-AtD-10" value="" style="edgeStyle=elbowEdgeStyle;elbow=vertical;html=1;rounded=1;curved=0;sourcePerimeterSpacing=0;targetPerimeterSpacing=0;startSize=6;endSize=6;" parent="MQBegtAZe7lp4aGN-AtD-7" source="MQBegtAZe7lp4aGN-AtD-8" target="MQBegtAZe7lp4aGN-AtD-9" edge="1">
          <mxGeometry relative="1" as="geometry" />
        </mxCell>
        <mxCell id="MQBegtAZe7lp4aGN-AtD-13" value="" style="edgeStyle=elbowEdgeStyle;elbow=vertical;html=1;rounded=1;curved=0;sourcePerimeterSpacing=0;targetPerimeterSpacing=0;startSize=6;endSize=6;" parent="MQBegtAZe7lp4aGN-AtD-7" source="MQBegtAZe7lp4aGN-AtD-9" target="MQBegtAZe7lp4aGN-AtD-14" edge="1">
          <mxGeometry relative="1" as="geometry">
            <mxPoint x="-8602.122400000002" y="140" as="sourcePoint" />
          </mxGeometry>
        </mxCell>
        <mxCell id="MQBegtAZe7lp4aGN-AtD-14" value="arq: ids_canais_brasileiros.pkl" style="whiteSpace=wrap;html=1;" parent="MQBegtAZe7lp4aGN-AtD-7" vertex="1">
          <mxGeometry x="20" y="220" width="170" height="40" as="geometry" />
        </mxCell>
        <mxCell id="MQBegtAZe7lp4aGN-AtD-17" value="" style="edgeStyle=elbowEdgeStyle;elbow=vertical;html=1;rounded=1;curved=0;sourcePerimeterSpacing=0;targetPerimeterSpacing=0;startSize=6;endSize=6;" parent="MQBegtAZe7lp4aGN-AtD-7" source="MQBegtAZe7lp4aGN-AtD-9" target="MQBegtAZe7lp4aGN-AtD-18" edge="1">
          <mxGeometry relative="1" as="geometry">
            <mxPoint x="-8532.122400000002" y="230" as="sourcePoint" />
          </mxGeometry>
        </mxCell>
        <mxCell id="MQBegtAZe7lp4aGN-AtD-18" value="extracao_data_turno" style="whiteSpace=wrap;html=1;" parent="MQBegtAZe7lp4aGN-AtD-7" vertex="1">
          <mxGeometry x="386.38879999999995" y="220" width="157.26" height="40" as="geometry" />
        </mxCell>
        <mxCell id="MQBegtAZe7lp4aGN-AtD-21" value="" style="edgeStyle=elbowEdgeStyle;elbow=vertical;html=1;rounded=1;curved=0;sourcePerimeterSpacing=0;targetPerimeterSpacing=0;startSize=6;endSize=6;" parent="MQBegtAZe7lp4aGN-AtD-7" source="MQBegtAZe7lp4aGN-AtD-18" target="MQBegtAZe7lp4aGN-AtD-22" edge="1">
          <mxGeometry relative="1" as="geometry">
            <mxPoint x="-8344.1224" y="230" as="sourcePoint" />
          </mxGeometry>
        </mxCell>
        <mxCell id="MQBegtAZe7lp4aGN-AtD-22" value="estatisticas_canais_brasileiros" style="whiteSpace=wrap;html=1;" parent="MQBegtAZe7lp4aGN-AtD-7" vertex="1">
          <mxGeometry x="190.9028" y="310" width="220" height="40" as="geometry" />
        </mxCell>
        <mxCell id="MQBegtAZe7lp4aGN-AtD-25" value="" style="edgeStyle=elbowEdgeStyle;elbow=vertical;html=1;rounded=1;curved=0;sourcePerimeterSpacing=0;targetPerimeterSpacing=0;startSize=6;endSize=6;" parent="MQBegtAZe7lp4aGN-AtD-7" source="MQBegtAZe7lp4aGN-AtD-18" target="MQBegtAZe7lp4aGN-AtD-26" edge="1">
          <mxGeometry relative="1" as="geometry">
            <mxPoint x="-7906.322399999999" y="240" as="sourcePoint" />
          </mxGeometry>
        </mxCell>
        <mxCell id="MQBegtAZe7lp4aGN-AtD-26" value="estatisticas_videos" style="whiteSpace=wrap;html=1;" parent="MQBegtAZe7lp4aGN-AtD-7" vertex="1">
          <mxGeometry x="465.5328" y="310" width="126" height="40" as="geometry" />
        </mxCell>
        <mxCell id="MQBegtAZe7lp4aGN-AtD-29" value="" style="edgeStyle=elbowEdgeStyle;elbow=vertical;html=1;rounded=1;curved=0;sourcePerimeterSpacing=0;targetPerimeterSpacing=0;startSize=6;endSize=6;" parent="MQBegtAZe7lp4aGN-AtD-7" source="MQBegtAZe7lp4aGN-AtD-9" target="MQBegtAZe7lp4aGN-AtD-30" edge="1">
          <mxGeometry relative="1" as="geometry">
            <mxPoint x="-7460.122399999998" y="240" as="sourcePoint" />
          </mxGeometry>
        </mxCell>
        <mxCell id="MQBegtAZe7lp4aGN-AtD-30" value="id_videos.pkl" style="whiteSpace=wrap;html=1;" parent="MQBegtAZe7lp4aGN-AtD-7" vertex="1">
          <mxGeometry x="773.6656" y="220" width="100" height="40" as="geometry" />
        </mxCell>
        <mxCell id="MQBegtAZe7lp4aGN-AtD-31" value="" style="edgeStyle=elbowEdgeStyle;elbow=vertical;html=1;rounded=1;curved=0;sourcePerimeterSpacing=0;targetPerimeterSpacing=0;startSize=6;endSize=6;" parent="MQBegtAZe7lp4aGN-AtD-7" source="MQBegtAZe7lp4aGN-AtD-18" target="MQBegtAZe7lp4aGN-AtD-32" edge="1">
          <mxGeometry relative="1" as="geometry">
            <mxPoint x="-7170.9223999999995" y="240" as="sourcePoint" />
          </mxGeometry>
        </mxCell>
        <mxCell id="MQBegtAZe7lp4aGN-AtD-32" value="historico_pesquisa" style="whiteSpace=wrap;html=1;" parent="MQBegtAZe7lp4aGN-AtD-7" vertex="1">
          <mxGeometry x="646.1628000000001" y="310" width="126.6" height="40" as="geometry" />
        </mxCell>
        <mxCell id="MQBegtAZe7lp4aGN-AtD-33" value="" style="edgeStyle=elbowEdgeStyle;elbow=vertical;html=1;rounded=1;curved=0;sourcePerimeterSpacing=0;targetPerimeterSpacing=0;startSize=6;endSize=6;" parent="MQBegtAZe7lp4aGN-AtD-7" source="MQBegtAZe7lp4aGN-AtD-32" target="MQBegtAZe7lp4aGN-AtD-34" edge="1">
          <mxGeometry relative="1" as="geometry">
            <mxPoint x="-6790.2824" y="330" as="sourcePoint" />
          </mxGeometry>
        </mxCell>
        <mxCell id="MQBegtAZe7lp4aGN-AtD-34" value="arq:req_historico.json" style="whiteSpace=wrap;html=1;" parent="MQBegtAZe7lp4aGN-AtD-7" vertex="1">
          <mxGeometry x="646.1628000000001" y="400" width="126.6" height="40" as="geometry" />
        </mxCell>
        <mxCell id="MQBegtAZe7lp4aGN-AtD-35" value="" style="edgeStyle=elbowEdgeStyle;elbow=vertical;html=1;rounded=1;curved=0;sourcePerimeterSpacing=0;targetPerimeterSpacing=0;startSize=6;endSize=6;" parent="MQBegtAZe7lp4aGN-AtD-7" source="MQBegtAZe7lp4aGN-AtD-26" target="MQBegtAZe7lp4aGN-AtD-36" edge="1">
          <mxGeometry relative="1" as="geometry">
            <mxPoint x="-6790.162399999999" y="330" as="sourcePoint" />
          </mxGeometry>
        </mxCell>
        <mxCell id="MQBegtAZe7lp4aGN-AtD-36" value="arq:estatisticas_videos.json" style="whiteSpace=wrap;html=1;" parent="MQBegtAZe7lp4aGN-AtD-7" vertex="1">
          <mxGeometry x="450.9028" y="400" width="155.26" height="40" as="geometry" />
        </mxCell>
        <mxCell id="MQBegtAZe7lp4aGN-AtD-37" value="" style="edgeStyle=elbowEdgeStyle;elbow=vertical;html=1;rounded=1;curved=0;sourcePerimeterSpacing=0;targetPerimeterSpacing=0;startSize=6;endSize=6;" parent="MQBegtAZe7lp4aGN-AtD-7" source="MQBegtAZe7lp4aGN-AtD-22" target="MQBegtAZe7lp4aGN-AtD-38" edge="1">
          <mxGeometry relative="1" as="geometry">
            <mxPoint x="-6789.696" y="330" as="sourcePoint" />
          </mxGeometry>
        </mxCell>
        <mxCell id="MQBegtAZe7lp4aGN-AtD-38" value="arq:estatisticas_canais_brasileiros.json" style="whiteSpace=wrap;html=1;" parent="MQBegtAZe7lp4aGN-AtD-7" vertex="1">
          <mxGeometry x="190.9028" y="400" width="220" height="40" as="geometry" />
        </mxCell>
        <mxCell id="MQBegtAZe7lp4aGN-AtD-43" value="" style="edgeStyle=elbowEdgeStyle;elbow=vertical;html=1;rounded=1;curved=0;sourcePerimeterSpacing=0;targetPerimeterSpacing=0;startSize=6;endSize=6;" parent="MQBegtAZe7lp4aGN-AtD-7" source="MQBegtAZe7lp4aGN-AtD-9" target="MQBegtAZe7lp4aGN-AtD-44" edge="1">
          <mxGeometry relative="1" as="geometry">
            <mxPoint x="-6401.1224" y="240" as="sourcePoint" />
          </mxGeometry>
        </mxCell>
        <mxCell id="MQBegtAZe7lp4aGN-AtD-44" value="id_resposta_comentarios.json" style="whiteSpace=wrap;html=1;" parent="MQBegtAZe7lp4aGN-AtD-7" vertex="1">
          <mxGeometry x="913.6656" y="220" width="202.51" height="40" as="geometry" />
        </mxCell>
        <mxCell id="i0Jnex9OlQ6WjUKS4uff-3" value="" style="edgeStyle=elbowEdgeStyle;elbow=vertical;html=1;rounded=1;curved=0;sourcePerimeterSpacing=0;targetPerimeterSpacing=0;startSize=6;endSize=6;" parent="MQBegtAZe7lp4aGN-AtD-7" source="MQBegtAZe7lp4aGN-AtD-9" target="i0Jnex9OlQ6WjUKS4uff-4" edge="1">
          <mxGeometry relative="1" as="geometry">
            <mxPoint x="107.10979999999984" y="80" as="sourcePoint" />
          </mxGeometry>
        </mxCell>
        <mxCell id="i0Jnex9OlQ6WjUKS4uff-4" value="id_videos_comentarios.pkl" style="whiteSpace=wrap;html=1;" parent="MQBegtAZe7lp4aGN-AtD-7" vertex="1">
          <mxGeometry x="1156.1756" y="220" width="159.01" height="40" as="geometry" />
        </mxCell>
        <mxCell id="MQBegtAZe7lp4aGN-AtD-55" value="datalake_prata" style="swimlane;startSize=20;horizontal=1;childLayout=treeLayout;horizontalTree=0;sortEdges=1;resizable=0;containerType=tree;fontSize=12;" parent="1" vertex="1">
          <mxGeometry x="-20" y="510" width="750" height="280" as="geometry" />
        </mxCell>
        <mxCell id="MQBegtAZe7lp4aGN-AtD-56" value="prata" style="whiteSpace=wrap;html=1;" parent="MQBegtAZe7lp4aGN-AtD-55" vertex="1">
          <mxGeometry x="309.5" y="40" width="100" height="40" as="geometry" />
        </mxCell>
        <mxCell id="MQBegtAZe7lp4aGN-AtD-57" value="estatisticas_canais_brasileiros" style="whiteSpace=wrap;html=1;" parent="MQBegtAZe7lp4aGN-AtD-55" vertex="1">
          <mxGeometry x="20" y="130" width="100" height="40" as="geometry" />
        </mxCell>
        <mxCell id="MQBegtAZe7lp4aGN-AtD-58" value="" style="edgeStyle=elbowEdgeStyle;elbow=vertical;html=1;rounded=1;curved=0;sourcePerimeterSpacing=0;targetPerimeterSpacing=0;startSize=6;endSize=6;" parent="MQBegtAZe7lp4aGN-AtD-55" source="MQBegtAZe7lp4aGN-AtD-56" target="MQBegtAZe7lp4aGN-AtD-57" edge="1">
          <mxGeometry relative="1" as="geometry" />
        </mxCell>
        <mxCell id="MQBegtAZe7lp4aGN-AtD-61" value="" style="edgeStyle=elbowEdgeStyle;elbow=vertical;html=1;rounded=1;curved=0;sourcePerimeterSpacing=0;targetPerimeterSpacing=0;startSize=6;endSize=6;" parent="MQBegtAZe7lp4aGN-AtD-55" source="MQBegtAZe7lp4aGN-AtD-57" target="MQBegtAZe7lp4aGN-AtD-62" edge="1">
          <mxGeometry relative="1" as="geometry">
            <mxPoint x="-2225" y="610" as="sourcePoint" />
          </mxGeometry>
        </mxCell>
        <mxCell id="MQBegtAZe7lp4aGN-AtD-62" value="" style="whiteSpace=wrap;html=1;" parent="MQBegtAZe7lp4aGN-AtD-55" vertex="1">
          <mxGeometry x="20" y="220" width="100" height="40" as="geometry" />
        </mxCell>
        <mxCell id="MQBegtAZe7lp4aGN-AtD-63" value="" style="edgeStyle=elbowEdgeStyle;elbow=vertical;html=1;rounded=1;curved=0;sourcePerimeterSpacing=0;targetPerimeterSpacing=0;startSize=6;endSize=6;" parent="MQBegtAZe7lp4aGN-AtD-55" source="MQBegtAZe7lp4aGN-AtD-56" target="MQBegtAZe7lp4aGN-AtD-64" edge="1">
          <mxGeometry relative="1" as="geometry">
            <mxPoint x="-2225" y="610" as="sourcePoint" />
          </mxGeometry>
        </mxCell>
        <mxCell id="MQBegtAZe7lp4aGN-AtD-64" value="estatisticas_videos" style="whiteSpace=wrap;html=1;" parent="MQBegtAZe7lp4aGN-AtD-55" vertex="1">
          <mxGeometry x="191.5" y="130" width="100" height="40" as="geometry" />
        </mxCell>
        <mxCell id="MQBegtAZe7lp4aGN-AtD-68" value="" style="edgeStyle=elbowEdgeStyle;elbow=vertical;html=1;rounded=1;curved=0;sourcePerimeterSpacing=0;targetPerimeterSpacing=0;startSize=6;endSize=6;" parent="MQBegtAZe7lp4aGN-AtD-55" source="MQBegtAZe7lp4aGN-AtD-56" target="MQBegtAZe7lp4aGN-AtD-69" edge="1">
          <mxGeometry relative="1" as="geometry">
            <mxPoint x="-1448" y="610" as="sourcePoint" />
          </mxGeometry>
        </mxCell>
        <mxCell id="MQBegtAZe7lp4aGN-AtD-69" value="comentarios" style="whiteSpace=wrap;html=1;" parent="MQBegtAZe7lp4aGN-AtD-55" vertex="1">
          <mxGeometry x="332" y="130" width="100" height="40" as="geometry" />
        </mxCell>
        <mxCell id="MQBegtAZe7lp4aGN-AtD-70" value="" style="edgeStyle=elbowEdgeStyle;elbow=vertical;html=1;rounded=1;curved=0;sourcePerimeterSpacing=0;targetPerimeterSpacing=0;startSize=6;endSize=6;" parent="MQBegtAZe7lp4aGN-AtD-55" source="MQBegtAZe7lp4aGN-AtD-56" target="MQBegtAZe7lp4aGN-AtD-71" edge="1">
          <mxGeometry relative="1" as="geometry">
            <mxPoint x="-1105" y="610" as="sourcePoint" />
          </mxGeometry>
        </mxCell>
        <mxCell id="MQBegtAZe7lp4aGN-AtD-71" value="resposta_comentarios" style="whiteSpace=wrap;html=1;" parent="MQBegtAZe7lp4aGN-AtD-55" vertex="1">
          <mxGeometry x="481" y="130" width="100" height="40" as="geometry" />
        </mxCell>
        <mxCell id="MQBegtAZe7lp4aGN-AtD-72" value="" style="edgeStyle=elbowEdgeStyle;elbow=vertical;html=1;rounded=1;curved=0;sourcePerimeterSpacing=0;targetPerimeterSpacing=0;startSize=6;endSize=6;" parent="MQBegtAZe7lp4aGN-AtD-55" source="MQBegtAZe7lp4aGN-AtD-56" target="MQBegtAZe7lp4aGN-AtD-73" edge="1">
          <mxGeometry relative="1" as="geometry">
            <mxPoint x="-621.5" y="610" as="sourcePoint" />
          </mxGeometry>
        </mxCell>
        <mxCell id="MQBegtAZe7lp4aGN-AtD-73" value="trends" style="whiteSpace=wrap;html=1;" parent="MQBegtAZe7lp4aGN-AtD-55" vertex="1">
          <mxGeometry x="630" y="130" width="100" height="40" as="geometry" />
        </mxCell>
        <mxCell id="iNWtsSQEXhnSxjWd-E_w-6" value="Tree Container" style="swimlane;startSize=20;horizontal=1;containerType=tree;" parent="1" vertex="1">
          <mxGeometry x="20" width="250" height="460" as="geometry" />
        </mxCell>
        <mxCell id="iNWtsSQEXhnSxjWd-E_w-7" value="" style="edgeStyle=elbowEdgeStyle;elbow=vertical;sourcePerimeterSpacing=0;targetPerimeterSpacing=0;startArrow=none;endArrow=none;rounded=0;curved=0;" parent="iNWtsSQEXhnSxjWd-E_w-6" source="iNWtsSQEXhnSxjWd-E_w-8" target="iNWtsSQEXhnSxjWd-E_w-9" edge="1">
          <mxGeometry relative="1" as="geometry" />
        </mxCell>
        <mxCell id="iNWtsSQEXhnSxjWd-E_w-8" value="camada_datalake" style="whiteSpace=wrap;html=1;treeFolding=1;treeMoving=1;newEdgeStyle={&quot;edgeStyle&quot;:&quot;elbowEdgeStyle&quot;,&quot;startArrow&quot;:&quot;none&quot;,&quot;endArrow&quot;:&quot;none&quot;};" parent="iNWtsSQEXhnSxjWd-E_w-6" vertex="1">
          <mxGeometry x="65" y="60" width="120" height="40" as="geometry" />
        </mxCell>
        <mxCell id="iNWtsSQEXhnSxjWd-E_w-9" value="assunto" style="whiteSpace=wrap;html=1;treeFolding=1;treeMoving=1;newEdgeStyle={&quot;edgeStyle&quot;:&quot;elbowEdgeStyle&quot;,&quot;startArrow&quot;:&quot;none&quot;,&quot;endArrow&quot;:&quot;none&quot;};" parent="iNWtsSQEXhnSxjWd-E_w-6" vertex="1">
          <mxGeometry x="65" y="140" width="120" height="40" as="geometry" />
        </mxCell>
        <mxCell id="iNWtsSQEXhnSxjWd-E_w-16" value="" style="edgeStyle=elbowEdgeStyle;elbow=vertical;sourcePerimeterSpacing=0;targetPerimeterSpacing=0;startArrow=none;endArrow=none;rounded=0;curved=0;" parent="iNWtsSQEXhnSxjWd-E_w-6" source="iNWtsSQEXhnSxjWd-E_w-9" target="iNWtsSQEXhnSxjWd-E_w-17" edge="1">
          <mxGeometry relative="1" as="geometry">
            <mxPoint x="145" y="80" as="sourcePoint" />
          </mxGeometry>
        </mxCell>
        <mxCell id="iNWtsSQEXhnSxjWd-E_w-17" value="pasta" style="whiteSpace=wrap;html=1;treeFolding=1;treeMoving=1;newEdgeStyle={&quot;edgeStyle&quot;:&quot;elbowEdgeStyle&quot;,&quot;startArrow&quot;:&quot;none&quot;,&quot;endArrow&quot;:&quot;none&quot;};" parent="iNWtsSQEXhnSxjWd-E_w-6" vertex="1">
          <mxGeometry x="65" y="220" width="120" height="40" as="geometry" />
        </mxCell>
        <mxCell id="iNWtsSQEXhnSxjWd-E_w-18" value="" style="edgeStyle=elbowEdgeStyle;elbow=vertical;sourcePerimeterSpacing=0;targetPerimeterSpacing=0;startArrow=none;endArrow=none;rounded=0;curved=0;" parent="iNWtsSQEXhnSxjWd-E_w-6" source="iNWtsSQEXhnSxjWd-E_w-17" target="iNWtsSQEXhnSxjWd-E_w-19" edge="1">
          <mxGeometry relative="1" as="geometry">
            <mxPoint x="145" y="160" as="sourcePoint" />
          </mxGeometry>
        </mxCell>
        <mxCell id="iNWtsSQEXhnSxjWd-E_w-19" value="metrica" style="whiteSpace=wrap;html=1;treeFolding=1;treeMoving=1;newEdgeStyle={&quot;edgeStyle&quot;:&quot;elbowEdgeStyle&quot;,&quot;startArrow&quot;:&quot;none&quot;,&quot;endArrow&quot;:&quot;none&quot;};" parent="iNWtsSQEXhnSxjWd-E_w-6" vertex="1">
          <mxGeometry x="65" y="300" width="120" height="40" as="geometry" />
        </mxCell>
        <mxCell id="iNWtsSQEXhnSxjWd-E_w-22" value="" style="edgeStyle=elbowEdgeStyle;elbow=vertical;sourcePerimeterSpacing=0;targetPerimeterSpacing=0;startArrow=none;endArrow=none;rounded=0;curved=0;" parent="iNWtsSQEXhnSxjWd-E_w-6" source="iNWtsSQEXhnSxjWd-E_w-19" target="iNWtsSQEXhnSxjWd-E_w-23" edge="1">
          <mxGeometry relative="1" as="geometry">
            <mxPoint x="145" y="260" as="sourcePoint" />
          </mxGeometry>
        </mxCell>
        <mxCell id="iNWtsSQEXhnSxjWd-E_w-23" value="arquivo" style="whiteSpace=wrap;html=1;treeFolding=1;treeMoving=1;newEdgeStyle={&quot;edgeStyle&quot;:&quot;elbowEdgeStyle&quot;,&quot;startArrow&quot;:&quot;none&quot;,&quot;endArrow&quot;:&quot;none&quot;};" parent="iNWtsSQEXhnSxjWd-E_w-6" vertex="1">
          <mxGeometry x="65" y="380" width="120" height="40" as="geometry" />
        </mxCell>
        <mxCell id="IUgWODF07EOp_iPvhM4A-29" value="ouro" style="swimlane;startSize=20;horizontal=0;childLayout=treeLayout;horizontalTree=1;sortEdges=1;resizable=0;containerType=tree;fontSize=12;" vertex="1" parent="1">
          <mxGeometry x="10" y="840" width="1090" height="160" as="geometry" />
        </mxCell>
        <mxCell id="IUgWODF07EOp_iPvhM4A-30" value="assunto_cities_skylines" style="whiteSpace=wrap;html=1;" vertex="1" parent="IUgWODF07EOp_iPvhM4A-29">
          <mxGeometry x="40" y="60" width="100" height="40" as="geometry" />
        </mxCell>
        <mxCell id="IUgWODF07EOp_iPvhM4A-31" value="estatisticas_canais" style="whiteSpace=wrap;html=1;" vertex="1" parent="IUgWODF07EOp_iPvhM4A-29">
          <mxGeometry x="202.5" y="20" width="117" height="40" as="geometry" />
        </mxCell>
        <mxCell id="IUgWODF07EOp_iPvhM4A-32" value="" style="edgeStyle=elbowEdgeStyle;elbow=horizontal;html=1;rounded=1;curved=0;sourcePerimeterSpacing=0;targetPerimeterSpacing=0;startSize=6;endSize=6;" edge="1" parent="IUgWODF07EOp_iPvhM4A-29" source="IUgWODF07EOp_iPvhM4A-30" target="IUgWODF07EOp_iPvhM4A-31">
          <mxGeometry relative="1" as="geometry" />
        </mxCell>
        <mxCell id="IUgWODF07EOp_iPvhM4A-33" value="estatisticas_videos" style="whiteSpace=wrap;html=1;" vertex="1" parent="IUgWODF07EOp_iPvhM4A-29">
          <mxGeometry x="202.5" y="100" width="137" height="40" as="geometry" />
        </mxCell>
        <mxCell id="IUgWODF07EOp_iPvhM4A-34" value="" style="edgeStyle=elbowEdgeStyle;elbow=horizontal;html=1;rounded=1;curved=0;sourcePerimeterSpacing=0;targetPerimeterSpacing=0;startSize=6;endSize=6;" edge="1" parent="IUgWODF07EOp_iPvhM4A-29" source="IUgWODF07EOp_iPvhM4A-30" target="IUgWODF07EOp_iPvhM4A-33">
          <mxGeometry relative="1" as="geometry" />
        </mxCell>
        <mxCell id="IUgWODF07EOp_iPvhM4A-35" value="" style="edgeStyle=elbowEdgeStyle;elbow=horizontal;html=1;rounded=1;curved=0;sourcePerimeterSpacing=0;targetPerimeterSpacing=0;startSize=6;endSize=6;" edge="1" target="IUgWODF07EOp_iPvhM4A-36" source="IUgWODF07EOp_iPvhM4A-31" parent="IUgWODF07EOp_iPvhM4A-29">
          <mxGeometry relative="1" as="geometry">
            <mxPoint x="280" y="930" as="sourcePoint" />
          </mxGeometry>
        </mxCell>
        <mxCell id="IUgWODF07EOp_iPvhM4A-36" value="ano" style="whiteSpace=wrap;html=1;" vertex="1" parent="IUgWODF07EOp_iPvhM4A-29">
          <mxGeometry x="369.5" y="20" width="100" height="40" as="geometry" />
        </mxCell>
        <mxCell id="IUgWODF07EOp_iPvhM4A-37" value="" style="edgeStyle=elbowEdgeStyle;elbow=horizontal;html=1;rounded=1;curved=0;sourcePerimeterSpacing=0;targetPerimeterSpacing=0;startSize=6;endSize=6;" edge="1" target="IUgWODF07EOp_iPvhM4A-38" source="IUgWODF07EOp_iPvhM4A-36" parent="IUgWODF07EOp_iPvhM4A-29">
          <mxGeometry relative="1" as="geometry">
            <mxPoint x="443" y="890" as="sourcePoint" />
          </mxGeometry>
        </mxCell>
        <mxCell id="IUgWODF07EOp_iPvhM4A-38" value="mes" style="whiteSpace=wrap;html=1;" vertex="1" parent="IUgWODF07EOp_iPvhM4A-29">
          <mxGeometry x="519.5" y="20" width="100" height="40" as="geometry" />
        </mxCell>
        <mxCell id="IUgWODF07EOp_iPvhM4A-39" value="" style="edgeStyle=elbowEdgeStyle;elbow=horizontal;html=1;rounded=1;curved=0;sourcePerimeterSpacing=0;targetPerimeterSpacing=0;startSize=6;endSize=6;" edge="1" target="IUgWODF07EOp_iPvhM4A-40" source="IUgWODF07EOp_iPvhM4A-38" parent="IUgWODF07EOp_iPvhM4A-29">
          <mxGeometry relative="1" as="geometry">
            <mxPoint x="594" y="890" as="sourcePoint" />
          </mxGeometry>
        </mxCell>
        <mxCell id="IUgWODF07EOp_iPvhM4A-40" value="dia" style="whiteSpace=wrap;html=1;" vertex="1" parent="IUgWODF07EOp_iPvhM4A-29">
          <mxGeometry x="669.5" y="20" width="100" height="40" as="geometry" />
        </mxCell>
        <mxCell id="IUgWODF07EOp_iPvhM4A-41" value="" style="edgeStyle=elbowEdgeStyle;elbow=horizontal;html=1;rounded=1;curved=0;sourcePerimeterSpacing=0;targetPerimeterSpacing=0;startSize=6;endSize=6;" edge="1" target="IUgWODF07EOp_iPvhM4A-42" source="IUgWODF07EOp_iPvhM4A-40" parent="IUgWODF07EOp_iPvhM4A-29">
          <mxGeometry relative="1" as="geometry">
            <mxPoint x="744" y="890" as="sourcePoint" />
          </mxGeometry>
        </mxCell>
        <mxCell id="IUgWODF07EOp_iPvhM4A-42" value="turno" style="whiteSpace=wrap;html=1;" vertex="1" parent="IUgWODF07EOp_iPvhM4A-29">
          <mxGeometry x="819.5" y="20" width="100" height="40" as="geometry" />
        </mxCell>
        <mxCell id="IUgWODF07EOp_iPvhM4A-43" value="" style="edgeStyle=elbowEdgeStyle;elbow=horizontal;html=1;rounded=1;curved=0;sourcePerimeterSpacing=0;targetPerimeterSpacing=0;startSize=6;endSize=6;" edge="1" target="IUgWODF07EOp_iPvhM4A-44" source="IUgWODF07EOp_iPvhM4A-42" parent="IUgWODF07EOp_iPvhM4A-29">
          <mxGeometry relative="1" as="geometry">
            <mxPoint x="894" y="890" as="sourcePoint" />
          </mxGeometry>
        </mxCell>
        <mxCell id="IUgWODF07EOp_iPvhM4A-44" value="id_canal" style="whiteSpace=wrap;html=1;" vertex="1" parent="IUgWODF07EOp_iPvhM4A-29">
          <mxGeometry x="969.5" y="20" width="100" height="40" as="geometry" />
        </mxCell>
        <mxCell id="IUgWODF07EOp_iPvhM4A-45" value="" style="edgeStyle=elbowEdgeStyle;elbow=horizontal;html=1;rounded=1;curved=0;sourcePerimeterSpacing=0;targetPerimeterSpacing=0;startSize=6;endSize=6;" edge="1" target="IUgWODF07EOp_iPvhM4A-46" source="IUgWODF07EOp_iPvhM4A-33" parent="IUgWODF07EOp_iPvhM4A-29">
          <mxGeometry relative="1" as="geometry">
            <mxPoint x="150" y="920" as="sourcePoint" />
          </mxGeometry>
        </mxCell>
        <mxCell id="IUgWODF07EOp_iPvhM4A-46" value="ano" style="whiteSpace=wrap;html=1;" vertex="1" parent="IUgWODF07EOp_iPvhM4A-29">
          <mxGeometry x="389.5" y="100" width="70.5" height="40" as="geometry" />
        </mxCell>
        <mxCell id="IUgWODF07EOp_iPvhM4A-47" value="" style="edgeStyle=elbowEdgeStyle;elbow=horizontal;html=1;rounded=1;curved=0;sourcePerimeterSpacing=0;targetPerimeterSpacing=0;startSize=6;endSize=6;" edge="1" target="IUgWODF07EOp_iPvhM4A-48" source="IUgWODF07EOp_iPvhM4A-46" parent="IUgWODF07EOp_iPvhM4A-29">
          <mxGeometry relative="1" as="geometry">
            <mxPoint x="350" y="960" as="sourcePoint" />
          </mxGeometry>
        </mxCell>
        <mxCell id="IUgWODF07EOp_iPvhM4A-48" value="mes" style="whiteSpace=wrap;html=1;" vertex="1" parent="IUgWODF07EOp_iPvhM4A-29">
          <mxGeometry x="510" y="100" width="70.5" height="40" as="geometry" />
        </mxCell>
        <mxCell id="IUgWODF07EOp_iPvhM4A-49" value="" style="edgeStyle=elbowEdgeStyle;elbow=horizontal;html=1;rounded=1;curved=0;sourcePerimeterSpacing=0;targetPerimeterSpacing=0;startSize=6;endSize=6;" edge="1" target="IUgWODF07EOp_iPvhM4A-50" source="IUgWODF07EOp_iPvhM4A-48" parent="IUgWODF07EOp_iPvhM4A-29">
          <mxGeometry relative="1" as="geometry">
            <mxPoint x="470" y="960" as="sourcePoint" />
          </mxGeometry>
        </mxCell>
        <mxCell id="IUgWODF07EOp_iPvhM4A-50" value="dia" style="whiteSpace=wrap;html=1;" vertex="1" parent="IUgWODF07EOp_iPvhM4A-29">
          <mxGeometry x="630.5" y="100" width="70.5" height="40" as="geometry" />
        </mxCell>
        <mxCell id="IUgWODF07EOp_iPvhM4A-51" value="" style="edgeStyle=elbowEdgeStyle;elbow=horizontal;html=1;rounded=1;curved=0;sourcePerimeterSpacing=0;targetPerimeterSpacing=0;startSize=6;endSize=6;" edge="1" target="IUgWODF07EOp_iPvhM4A-52" source="IUgWODF07EOp_iPvhM4A-50" parent="IUgWODF07EOp_iPvhM4A-29">
          <mxGeometry relative="1" as="geometry">
            <mxPoint x="591" y="960" as="sourcePoint" />
          </mxGeometry>
        </mxCell>
        <mxCell id="IUgWODF07EOp_iPvhM4A-52" value="turno" style="whiteSpace=wrap;html=1;" vertex="1" parent="IUgWODF07EOp_iPvhM4A-29">
          <mxGeometry x="751" y="100" width="70.5" height="40" as="geometry" />
        </mxCell>
        <mxCell id="IUgWODF07EOp_iPvhM4A-53" value="" style="edgeStyle=elbowEdgeStyle;elbow=horizontal;html=1;rounded=1;curved=0;sourcePerimeterSpacing=0;targetPerimeterSpacing=0;startSize=6;endSize=6;" edge="1" target="IUgWODF07EOp_iPvhM4A-54" source="IUgWODF07EOp_iPvhM4A-52" parent="IUgWODF07EOp_iPvhM4A-29">
          <mxGeometry relative="1" as="geometry">
            <mxPoint x="711" y="960" as="sourcePoint" />
          </mxGeometry>
        </mxCell>
        <mxCell id="IUgWODF07EOp_iPvhM4A-54" value="id_canal" style="whiteSpace=wrap;html=1;" vertex="1" parent="IUgWODF07EOp_iPvhM4A-29">
          <mxGeometry x="871.5" y="100" width="70.5" height="40" as="geometry" />
        </mxCell>
        <mxCell id="IUgWODF07EOp_iPvhM4A-55" value="" style="edgeStyle=elbowEdgeStyle;elbow=horizontal;html=1;rounded=1;curved=0;sourcePerimeterSpacing=0;targetPerimeterSpacing=0;startSize=6;endSize=6;" edge="1" target="IUgWODF07EOp_iPvhM4A-56" source="IUgWODF07EOp_iPvhM4A-54" parent="IUgWODF07EOp_iPvhM4A-29">
          <mxGeometry relative="1" as="geometry">
            <mxPoint x="832" y="960" as="sourcePoint" />
          </mxGeometry>
        </mxCell>
        <mxCell id="IUgWODF07EOp_iPvhM4A-56" value="id_video" style="whiteSpace=wrap;html=1;" vertex="1" parent="IUgWODF07EOp_iPvhM4A-29">
          <mxGeometry x="992" y="100" width="70.5" height="40" as="geometry" />
        </mxCell>
      </root>
    </mxGraphModel>
  </diagram>
</mxfile>
